<mxfile host="app.diagrams.net" modified="2023-04-24T17:14:29.130Z" agent="Mozilla/5.0 (Windows NT 10.0; Win64; x64) AppleWebKit/537.36 (KHTML, like Gecko) Chrome/110.0.0.0 YaBrowser/23.3.2.806 Yowser/2.5 Safari/537.36" etag="wpQ26Cxcwxhnkb0EXfrE" version="21.2.1" type="browser">
  <diagram name="Страница 1" id="W4l4dsYCmqZ8as79tH7i">
    <mxGraphModel dx="832" dy="447" grid="1" gridSize="10" guides="1" tooltips="1" connect="1" arrows="1" fold="1" page="1" pageScale="1" pageWidth="827" pageHeight="1169" math="0" shadow="0">
      <root>
        <mxCell id="0" />
        <mxCell id="1" parent="0" />
        <mxCell id="T9V647r9tGl4LBUJ-WY9-12" style="edgeStyle=orthogonalEdgeStyle;rounded=0;orthogonalLoop=1;jettySize=auto;html=1;" parent="1" source="T9V647r9tGl4LBUJ-WY9-1" target="T9V647r9tGl4LBUJ-WY9-2" edge="1">
          <mxGeometry relative="1" as="geometry" />
        </mxCell>
        <mxCell id="T9V647r9tGl4LBUJ-WY9-17" style="edgeStyle=orthogonalEdgeStyle;rounded=0;orthogonalLoop=1;jettySize=auto;html=1;entryX=1;entryY=0.5;entryDx=0;entryDy=0;" parent="1" source="T9V647r9tGl4LBUJ-WY9-1" target="T9V647r9tGl4LBUJ-WY9-14" edge="1">
          <mxGeometry relative="1" as="geometry" />
        </mxCell>
        <mxCell id="T9V647r9tGl4LBUJ-WY9-1" value="" style="image;aspect=fixed;html=1;points=[];align=center;fontSize=12;image=img/lib/azure2/networking/Virtual_Router.svg;" parent="1" vertex="1">
          <mxGeometry x="190" y="220" width="68" height="68" as="geometry" />
        </mxCell>
        <mxCell id="T9V647r9tGl4LBUJ-WY9-2" value="" style="image;aspect=fixed;html=1;points=[];align=center;fontSize=12;image=img/lib/azure2/networking/Virtual_Router.svg;" parent="1" vertex="1">
          <mxGeometry x="600" y="220" width="68" height="68" as="geometry" />
        </mxCell>
        <mxCell id="T9V647r9tGl4LBUJ-WY9-3" value="&lt;font style=&quot;font-weight: bold; font-size: 13px;&quot;&gt;&lt;span style=&quot;font-size: 14px;&quot;&gt;Микротик 1 - Свободный 9&lt;/span&gt;&lt;br&gt;&lt;div style=&quot;&quot;&gt;&lt;span style=&quot;background-color: initial; font-weight: normal;&quot;&gt;&lt;font style=&quot;font-size: 13px;&quot;&gt;DHCP на bridge1&lt;/font&gt;&lt;/span&gt;&lt;/div&gt;&lt;/font&gt;&lt;font style=&quot;font-size: 13px;&quot;&gt;&lt;div style=&quot;&quot;&gt;&lt;span style=&quot;background-color: initial;&quot;&gt;10.10.10.0/24&lt;/span&gt;&lt;/div&gt;&lt;/font&gt;&lt;font style=&quot;&quot;&gt;&lt;div style=&quot;font-size: 13px;&quot;&gt;&lt;span style=&quot;background-color: initial;&quot;&gt;&lt;font style=&quot;font-size: 13px;&quot;&gt;10.10.10.1&lt;/font&gt;&lt;/span&gt;&lt;/div&gt;&lt;br&gt;&lt;i style=&quot;&quot;&gt;&lt;font style=&quot;font-size: 14px;&quot;&gt;Bridge1 - 240 VLAN +&amp;nbsp;&lt;br&gt;все порты, кроме eth 1 и eth для TP-Linka&lt;br&gt;&lt;/font&gt;&lt;/i&gt;&lt;br&gt;&lt;/font&gt;" style="text;strokeColor=none;align=center;fillColor=none;html=1;verticalAlign=middle;whiteSpace=wrap;rounded=0;" parent="1" vertex="1">
          <mxGeometry x="124" y="290" width="200" height="140" as="geometry" />
        </mxCell>
        <mxCell id="T9V647r9tGl4LBUJ-WY9-4" value="&lt;span style=&quot;border-color: var(--border-color);&quot;&gt;&lt;font style=&quot;border-color: var(--border-color);&quot;&gt;&lt;b style=&quot;font-size: 14px;&quot;&gt;Микротик 2 - Новоторжская&amp;nbsp; 19&lt;br&gt;&lt;/b&gt;&lt;span style=&quot;font-size: 14px;&quot;&gt;DHCP на bridge 1&lt;/span&gt;&lt;br&gt;&lt;span style=&quot;font-size: 14px;&quot;&gt;193.168.3.0/24&lt;/span&gt;&lt;br&gt;&lt;span style=&quot;font-size: 14px;&quot;&gt;193.168.3.1&lt;/span&gt;&lt;br&gt;&lt;br&gt;&lt;font style=&quot;font-size: 14px;&quot;&gt;&lt;i style=&quot;&quot;&gt;Bridge 1 - все порты, кроме et1 и et7&lt;/i&gt;&lt;br&gt;&lt;/font&gt;&lt;br&gt;&lt;/font&gt;&lt;/span&gt;" style="text;strokeColor=none;align=center;fillColor=none;html=1;verticalAlign=middle;whiteSpace=wrap;rounded=0;" parent="1" vertex="1">
          <mxGeometry x="530" y="290" width="220" height="160" as="geometry" />
        </mxCell>
        <mxCell id="T9V647r9tGl4LBUJ-WY9-6" value="Ethernet 1&lt;br&gt;VLAN 240" style="text;strokeColor=none;align=center;fillColor=none;html=1;verticalAlign=middle;whiteSpace=wrap;rounded=0;" parent="1" vertex="1">
          <mxGeometry x="270" y="210" width="60" height="30" as="geometry" />
        </mxCell>
        <mxCell id="T9V647r9tGl4LBUJ-WY9-8" value="Ethernet 7&lt;br&gt;10.10.10.2" style="text;strokeColor=none;align=center;fillColor=none;html=1;verticalAlign=middle;whiteSpace=wrap;rounded=0;" parent="1" vertex="1">
          <mxGeometry x="540" y="210" width="60" height="30" as="geometry" />
        </mxCell>
        <mxCell id="T9V647r9tGl4LBUJ-WY9-14" value="" style="image;aspect=fixed;perimeter=ellipsePerimeter;html=1;align=center;shadow=0;dashed=0;fontColor=#4277BB;labelBackgroundColor=default;fontSize=12;spacingTop=3;image=img/lib/ibm/vpc/Router.svg;" parent="1" vertex="1">
          <mxGeometry x="40" y="160" width="60" height="60" as="geometry" />
        </mxCell>
        <mxCell id="T9V647r9tGl4LBUJ-WY9-15" value="&lt;font style=&quot;font-size: 14px;&quot;&gt;&lt;b&gt;ТP-Link&amp;nbsp;&lt;br&gt;Точка доступа&lt;br&gt;192.168.0.x&lt;/b&gt;&lt;/font&gt;" style="text;strokeColor=none;align=center;fillColor=none;html=1;verticalAlign=middle;whiteSpace=wrap;rounded=0;" parent="1" vertex="1">
          <mxGeometry y="220" width="140" height="60" as="geometry" />
        </mxCell>
        <mxCell id="T9V647r9tGl4LBUJ-WY9-22" style="edgeStyle=orthogonalEdgeStyle;rounded=0;orthogonalLoop=1;jettySize=auto;html=1;exitX=0.6;exitY=1;exitDx=0;exitDy=0;exitPerimeter=0;" parent="1" source="T9V647r9tGl4LBUJ-WY9-18" target="T9V647r9tGl4LBUJ-WY9-1" edge="1">
          <mxGeometry relative="1" as="geometry" />
        </mxCell>
        <mxCell id="T9V647r9tGl4LBUJ-WY9-18" value="" style="outlineConnect=0;dashed=0;verticalLabelPosition=bottom;verticalAlign=top;align=center;html=1;shape=mxgraph.aws3.internet;fillColor=#D2D3D3;gradientColor=none;" parent="1" vertex="1">
          <mxGeometry x="250.5" y="10" width="109.5" height="79.5" as="geometry" />
        </mxCell>
        <mxCell id="T9V647r9tGl4LBUJ-WY9-23" style="edgeStyle=orthogonalEdgeStyle;rounded=0;orthogonalLoop=1;jettySize=auto;html=1;entryX=0.544;entryY=-0.059;entryDx=0;entryDy=0;entryPerimeter=0;" parent="1" source="T9V647r9tGl4LBUJ-WY9-19" target="T9V647r9tGl4LBUJ-WY9-2" edge="1">
          <mxGeometry relative="1" as="geometry" />
        </mxCell>
        <mxCell id="T9V647r9tGl4LBUJ-WY9-19" value="" style="outlineConnect=0;dashed=0;verticalLabelPosition=bottom;verticalAlign=top;align=center;html=1;shape=mxgraph.aws3.internet;fillColor=#D2D3D3;gradientColor=none;" parent="1" vertex="1">
          <mxGeometry x="540" y="10" width="109.5" height="79.5" as="geometry" />
        </mxCell>
        <mxCell id="T9V647r9tGl4LBUJ-WY9-20" value="&lt;b&gt;Провайдер 1&lt;/b&gt;" style="text;strokeColor=none;align=center;fillColor=none;html=1;verticalAlign=middle;whiteSpace=wrap;rounded=0;" parent="1" vertex="1">
          <mxGeometry x="255.25" y="30" width="100" height="30" as="geometry" />
        </mxCell>
        <mxCell id="T9V647r9tGl4LBUJ-WY9-21" value="&lt;b style=&quot;border-color: var(--border-color);&quot;&gt;Провайдер 2&lt;/b&gt;" style="text;strokeColor=none;align=center;fillColor=none;html=1;verticalAlign=middle;whiteSpace=wrap;rounded=0;" parent="1" vertex="1">
          <mxGeometry x="549.75" y="30" width="90" height="30" as="geometry" />
        </mxCell>
        <mxCell id="T9V647r9tGl4LBUJ-WY9-24" value="Ethernet 1" style="text;strokeColor=none;align=center;fillColor=none;html=1;verticalAlign=middle;whiteSpace=wrap;rounded=0;" parent="1" vertex="1">
          <mxGeometry x="230" y="170" width="60" height="30" as="geometry" />
        </mxCell>
        <mxCell id="T9V647r9tGl4LBUJ-WY9-25" value="Ethernet 1" style="text;strokeColor=none;align=center;fillColor=none;html=1;verticalAlign=middle;whiteSpace=wrap;rounded=0;" parent="1" vertex="1">
          <mxGeometry x="639.75" y="180" width="60" height="30" as="geometry" />
        </mxCell>
        <mxCell id="T9V647r9tGl4LBUJ-WY9-31" style="edgeStyle=orthogonalEdgeStyle;rounded=0;orthogonalLoop=1;jettySize=auto;html=1;entryX=-0.015;entryY=0.456;entryDx=0;entryDy=0;entryPerimeter=0;" parent="1" source="T9V647r9tGl4LBUJ-WY9-28" target="T9V647r9tGl4LBUJ-WY9-2" edge="1">
          <mxGeometry relative="1" as="geometry">
            <Array as="points">
              <mxPoint x="540" y="233" />
              <mxPoint x="540" y="254" />
              <mxPoint x="599" y="254" />
            </Array>
          </mxGeometry>
        </mxCell>
        <mxCell id="T9V647r9tGl4LBUJ-WY9-28" value="10.10.10.x ping 192.168.3.x" style="text;html=1;align=center;verticalAlign=middle;resizable=0;points=[];autosize=1;strokeColor=none;fillColor=none;" parent="1" vertex="1">
          <mxGeometry x="335" y="218" width="170" height="30" as="geometry" />
        </mxCell>
        <mxCell id="T9V647r9tGl4LBUJ-WY9-32" style="edgeStyle=orthogonalEdgeStyle;rounded=0;orthogonalLoop=1;jettySize=auto;html=1;" parent="1" source="T9V647r9tGl4LBUJ-WY9-29" target="T9V647r9tGl4LBUJ-WY9-1" edge="1">
          <mxGeometry relative="1" as="geometry" />
        </mxCell>
        <mxCell id="T9V647r9tGl4LBUJ-WY9-29" value="&lt;span style=&quot;color: rgb(0, 0, 0); font-family: Helvetica; font-size: 12px; font-style: normal; font-variant-ligatures: normal; font-variant-caps: normal; font-weight: 400; letter-spacing: normal; orphans: 2; text-align: center; text-indent: 0px; text-transform: none; widows: 2; word-spacing: 0px; -webkit-text-stroke-width: 0px; background-color: rgb(251, 251, 251); text-decoration-thickness: initial; text-decoration-style: initial; text-decoration-color: initial; float: none; display: inline !important;&quot;&gt;192.168.3.x ping 10.10.10.x&amp;nbsp;&lt;/span&gt;" style="text;whiteSpace=wrap;html=1;" parent="1" vertex="1">
          <mxGeometry x="340" y="260" width="180" height="30" as="geometry" />
        </mxCell>
      </root>
    </mxGraphModel>
  </diagram>
</mxfile>
